<?xml version="1.0" encoding="UTF-8"?>
<svg width="314px" height="171px" viewBox="0 0 314 171" version="1.1" xmlns="http://www.w3.org/2000/svg" xmlns:xlink="http://www.w3.org/1999/xlink">
    <!-- Generator: Sketch 63.1 (92452) - https://sketch.com -->
    <title>Group Copy 3</title>
    <desc>Created with Sketch.</desc>
    <g id="Page-2" stroke="none" stroke-width="1" fill="none" fill-rule="evenodd">
        <g id="Group-Copy-3" transform="translate(-25.000000, -24.000000)">
            <path d="M61.27,161.605 C73.36,161.605 82.8825,157.8675 89.8375,150.3925 C96.7925,142.9175 100.27,133.135 100.27,121.045 C100.27,112.205 95.915,104.535 87.205,98.035 C87.075,98.035 80.8675,94.59 68.5825,87.7 C56.2975,80.81 50.155,74.8625 50.155,69.8575 C50.155,64.8525 51.845,60.855 55.225,57.865 C58.605,54.875 62.765,53.38 67.705,53.38 C75.505,53.38 81.94,56.955 87.01,64.105 L87.01,64.105 L96.37,50.26 C88.44,41.42 77.65,37 64,37 C54.12,37 45.8975,40.4125 39.3325,47.2375 C32.7675,54.0625 29.485,62.48 29.485,72.49 C29.485,84.19 36.6025,93.1925 50.8375,99.4975 C65.0725,105.8025 73.425,110.4825 75.895,113.5375 C78.365,116.5925 79.6,120.135 79.6,124.165 C79.6,129.755 77.9425,134.5 74.6275,138.4 C71.3125,142.3 66.795,144.25 61.075,144.25 C56.265,144.25 51.585,142.365 47.035,138.595 C42.485,134.825 39.365,130.665 37.675,126.115 L37.675,126.115 L25,138.595 C33.84,153.935 45.93,161.605 61.27,161.605 Z M139.2,162 L139.2,123 C139.2,105.58 144.66,96.87 155.58,96.87 C165.59,96.87 170.595,104.995 170.595,121.245 L170.595,121.245 L170.595,162 L189.315,162 L189.315,115.005 C189.315,93.295 180.475,82.44 162.795,82.44 C152.395,82.44 144.53,85.625 139.2,91.995 L139.2,91.995 L139.2,84.975 L120.285,84.975 L120.285,162 L139.2,162 Z M233.915,162.025 L233.915,85 L215,85 L215,162.025 L233.915,162.025 Z M278.915,194.125 L279.305,154.345 C283.725,160.845 291.59,164.095 302.9,164.095 C313.43,164.095 322.01,160.13 328.64,152.2 C335.27,144.27 338.585,134.39 338.585,122.56 C338.585,111.64 335.2375,102.15 328.5425,94.09 C321.8475,86.03 313.43,82 303.29,82 C292.5,82 284.375,85.185 278.915,91.555 L278.915,91.555 L278.915,84.535 L260,84.535 L260,194.125 L278.915,194.125 Z M298.025,147.715 C292.435,147.715 287.495,145.18 283.205,140.11 C278.915,135.04 276.77,129.2875 276.77,122.8525 C276.77,116.4175 278.785,110.73 282.815,105.79 C286.845,100.85 291.915,98.38 298.025,98.38 C304.655,98.38 309.855,100.8175 313.625,105.6925 C317.395,110.5675 319.28,116.32 319.28,122.95 C319.28,130.1 317.395,136.015 313.625,140.695 C309.855,145.375 304.655,147.715 298.025,147.715 Z" id="Snip" fill="#0D5A99" fill-rule="nonzero"></path>
            <path d="M208.485684,24 L251,32.4627786 C249.618354,50.8419501 245.789792,65.3543573 239.514316,76 C218.892181,71.7084228 215.87371,71.0320599 197,67.5372214 C203.499105,57.4952841 207.327667,42.982877 208.485684,24 Z" id="Rectangle-Copy" fill="#62AFEE"></path>
        </g>
    </g>
</svg>